<svg width="38" height="30" viewBox="0 0 38 30" fill="none" xmlns="http://www.w3.org/2000/svg">
<path d="M36.5 20.2893V5.86763C36.5 4.75827 35.599 3.86612 34.496 3.86612H28.3908L27.4976 2.50075C27.0859 1.87237 26.3868 1.5 25.6411 1.5H12.3666C11.6209 1.5 10.9219 1.87237 10.5102 2.50075L9.61695 3.86612H3.50399C2.39325 3.86612 1.5 4.76602 1.5 5.86763V26.6817C1.5 27.7911 2.40102 28.6833 3.50399 28.6833H27.9791" stroke="#D7574E" stroke-width="1.5" stroke-linecap="round" stroke-linejoin="round"/>
<path d="M19.2809 24.6255C23.7766 24.6255 27.4211 20.9855 27.4211 16.4954C27.4211 12.0052 23.7766 8.36523 19.2809 8.36523C14.7851 8.36523 11.1406 12.0052 11.1406 16.4954C11.1406 20.9855 14.7851 24.6255 19.2809 24.6255Z" stroke="#D7574E" stroke-width="1.5" stroke-linecap="round" stroke-linejoin="round"/>
<path d="M32.531 6.83008H29.1288C28.7513 6.83008 28.4453 7.13573 28.4453 7.51276V8.83934C28.4453 9.21638 28.7513 9.52203 29.1288 9.52203H32.531C32.9085 9.52203 33.2145 9.21638 33.2145 8.83934V7.51276C33.2145 7.13573 32.9085 6.83008 32.531 6.83008Z" stroke="#D7574E" stroke-width="1.5" stroke-linecap="round" stroke-linejoin="round"/>
<path d="M28.8242 24.8516H36.4984" stroke="#D7574E" stroke-width="1.5" stroke-linecap="round" stroke-linejoin="round"/>
<path d="M32.6602 21.0195V28.6842" stroke="#D7574E" stroke-width="1.5" stroke-linecap="round" stroke-linejoin="round"/>
</svg>
