<svg width="18" height="17" viewBox="0 0 18 17" fill="none" xmlns="http://www.w3.org/2000/svg">
<path d="M16.7346 1H14.8505L13.7285 11.2781H2.49639L1.73438 4.29404H12.1445" stroke="#1E0E0E" stroke-width="1.5" stroke-linecap="round" stroke-linejoin="round"/>
<path d="M3.87109 13.0898H13.9272" stroke="#1E0E0E" stroke-width="1.5" stroke-linecap="round" stroke-linejoin="round"/>
<path d="M13.9247 15.9997C14.7266 15.9997 15.3767 15.3497 15.3767 14.5477C15.3767 13.7458 14.7266 13.0957 13.9247 13.0957C13.1227 13.0957 12.4727 13.7458 12.4727 14.5477C12.4727 15.3497 13.1227 15.9997 13.9247 15.9997Z" stroke="#1E0E0E" stroke-width="1.5" stroke-linecap="round" stroke-linejoin="round"/>
<path d="M3.86999 15.9997C4.67192 15.9997 5.32201 15.3497 5.32201 14.5477C5.32201 13.7458 4.67192 13.0957 3.86999 13.0957C3.06806 13.0957 2.41797 13.7458 2.41797 14.5477C2.41797 15.3497 3.06806 15.9997 3.86999 15.9997Z" stroke="#1E0E0E" stroke-width="1.5" stroke-linecap="round" stroke-linejoin="round"/>
</svg>
