<svg width="25" height="25" viewBox="0 0 25 25" fill="none" xmlns="http://www.w3.org/2000/svg">
<g clip-path="url(#clip0_1441_929)">
<path d="M12.4995 0.708008C5.99005 0.708008 0.707031 5.98159 0.707031 12.5005C0.707031 15.1608 1.58439 17.6137 3.07496 19.5854C5.2259 22.4439 8.65043 24.2929 12.4995 24.2929C16.3485 24.2929 19.7825 22.4439 21.9334 19.5854C23.4146 17.6137 24.2919 15.1608 24.2919 12.5005C24.2919 5.98159 19.0184 0.708008 12.4995 0.708008ZM12.4995 18.3306C11.0089 18.3306 9.65043 17.8401 8.55609 17.0005C6.99948 15.8118 5.99005 13.9344 5.99005 11.8212C5.99005 8.22688 8.90514 5.31178 12.4995 5.31178C16.0938 5.31178 19.0184 8.22688 19.0184 11.8212C19.0184 13.9344 18.0089 15.8118 16.4429 17.0005C15.3485 17.8401 13.99 18.3306 12.4995 18.3306Z" stroke="#D7574E" stroke-width="1.5" stroke-linecap="round" stroke-linejoin="round"/>
<path d="M19.0205 11.821C19.0205 13.9342 18.0111 15.8115 16.445 17.0002C15.3507 17.8398 13.9922 18.3304 12.5016 18.3304C11.0111 18.3304 9.65256 17.8398 8.55822 17.0002C7.00162 15.8115 5.99219 13.9342 5.99219 11.821C5.99219 8.22662 8.90728 5.31152 12.5016 5.31152C16.096 5.31152 19.0205 8.22662 19.0205 11.821Z" stroke="#D7574E" stroke-width="1.5" stroke-linecap="round" stroke-linejoin="round"/>
<path d="M21.9327 19.5849C19.7818 22.4434 16.3572 24.2925 12.4987 24.2925C8.64026 24.2925 5.22516 22.4434 3.07422 19.5849C4.69686 18.3962 6.55535 17.5094 8.55535 17C9.64969 17.8396 11.0082 18.3302 12.4987 18.3302C13.9893 18.3302 15.3478 17.8396 16.4421 17C18.4516 17.5094 20.3101 18.3962 21.9327 19.5849Z" stroke="#D7574E" stroke-width="1.5" stroke-linecap="round" stroke-linejoin="round"/>
</g>
<defs>
<clipPath id="clip0_1441_929">
<rect width="25" height="25" fill="white"/>
</clipPath>
</defs>
</svg>
