<svg width="25" height="25" viewBox="0 0 25 25" fill="none" xmlns="http://www.w3.org/2000/svg">
<g clip-path="url(#clip0_1441_909)">
<path d="M3.69908 10.6231C2.73682 4.08537 8.10474 0.708008 12.501 0.708008C16.8972 0.708008 22.2651 3.79291 21.3123 10.6231" stroke="#1E0E0E" stroke-width="1.5" stroke-linecap="round" stroke-linejoin="round"/>
<path d="M2.1976 10.6227C1.37684 10.6227 0.707031 11.3963 0.707031 12.3397V15.368C0.707031 16.3208 1.37684 17.085 2.1976 17.085H4.2825C4.54665 17.085 4.76364 16.8397 4.76364 16.5284V11.1699C4.76364 10.868 4.54665 10.6133 4.2825 10.6133H3.6976" stroke="#1E0E0E" stroke-width="1.5" stroke-linejoin="round"/>
<path d="M22.8004 10.6227C23.6212 10.6227 24.291 11.3963 24.291 12.3397V15.368C24.291 16.3208 23.6212 17.085 22.8004 17.085H20.7155C20.4514 17.085 20.2344 16.8397 20.2344 16.5284V11.1699C20.2344 10.868 20.4514 10.6133 20.7155 10.6133H21.3004" stroke="#1E0E0E" stroke-width="1.5" stroke-linejoin="round"/>
<path d="M21.6212 17.085V20.934C21.6212 22.1793 20.6118 23.1982 19.3571 23.1982H15.3477" stroke="#1E0E0E" stroke-width="1.5" stroke-linejoin="round"/>
<path d="M14.0099 21.623H10.6326C9.89274 21.623 9.29297 22.2207 9.29297 22.958C9.29297 23.6952 9.89274 24.2929 10.6326 24.2929H14.0099C14.7498 24.2929 15.3496 23.6952 15.3496 22.958C15.3496 22.2207 14.7498 21.623 14.0099 21.623Z" stroke="#1E0E0E" stroke-width="1.5" stroke-linecap="round" stroke-linejoin="round"/>
<path d="M13.0941 11.4805C13.5564 11.4805 13.9337 11.8579 13.9337 12.3201V17.056C13.9337 17.5183 13.5564 17.8956 13.0941 17.8956C12.6319 17.8956 12.2545 17.5183 12.2545 17.056V13.1598H11.9149C11.4526 13.1598 11.0753 12.7824 11.0753 12.3201C11.0753 11.8579 11.4526 11.4805 11.9149 11.4805H13.0941ZM13.0941 10.0654H11.9149C10.6696 10.0654 9.66016 11.0749 9.66016 12.3201C9.66016 13.1786 10.1413 13.9239 10.8394 14.3013V17.056C10.8394 18.3013 11.8488 19.3107 13.0941 19.3107C14.3394 19.3107 15.3488 18.3013 15.3488 17.056V12.3201C15.3488 11.0749 14.3394 10.0654 13.0941 10.0654Z" fill="#1E0E0E"/>
<path d="M12.7259 5.57525C13.3391 5.57525 13.8297 6.06582 13.8297 6.67902C13.8297 7.29223 13.3391 7.7828 12.7259 7.7828C12.1127 7.7828 11.6221 7.29223 11.6221 6.67902C11.6221 6.06582 12.1127 5.57525 12.7259 5.57525ZM12.7259 4.16016C11.3391 4.16016 10.207 5.29223 10.207 6.67902C10.207 8.06582 11.3391 9.19789 12.7259 9.19789C14.1127 9.19789 15.2448 8.06582 15.2448 6.67902C15.2448 5.29223 14.1127 4.16016 12.7259 4.16016Z" fill="#1E0E0E"/>
</g>
<defs>
<clipPath id="clip0_1441_909">
<rect width="25" height="25" fill="white"/>
</clipPath>
</defs>
</svg>
