<svg width="24" height="22" viewBox="0 0 24 22" fill="none" xmlns="http://www.w3.org/2000/svg">
<path d="M6.90234 14.4303H18.8573C19.8805 14.4303 20.7529 13.698 20.9468 12.6963L22.4223 4.8125H9.21795" stroke="#1E0E0E" stroke-width="1.5" stroke-linecap="round" stroke-linejoin="round"/>
<path d="M1 1H2.76632C3.33715 1 3.82181 1.3985 3.91874 1.95855L6.56823 15.9707C6.76209 16.9723 7.63448 17.7047 8.65766 17.7047H19.7618" stroke="#1E0E0E" stroke-width="1.5" stroke-miterlimit="10" stroke-linecap="round"/>
<path d="M19.765 20.9998C20.6751 20.9998 21.4129 20.262 21.4129 19.352C21.4129 18.4419 20.6751 17.7041 19.765 17.7041C18.855 17.7041 18.1172 18.4419 18.1172 19.352C18.1172 20.262 18.855 20.9998 19.765 20.9998Z" stroke="#1E0E0E" stroke-width="1.5" stroke-miterlimit="10" stroke-linecap="round"/>
<path d="M7.5541 20.9998C8.46418 20.9998 9.20195 20.262 9.20195 19.352C9.20195 18.4419 8.46418 17.7041 7.5541 17.7041C6.64402 17.7041 5.90625 18.4419 5.90625 19.352C5.90625 20.262 6.64402 20.9998 7.5541 20.9998Z" stroke="#1E0E0E" stroke-width="1.5" stroke-miterlimit="10" stroke-linecap="round"/>
</svg>
