<svg width="16" height="15" viewBox="0 0 16 15" fill="none" xmlns="http://www.w3.org/2000/svg">
<path d="M8.25677 0.236054L10.3563 4.48502C10.4174 4.61277 10.5396 4.70164 10.6784 4.7183L15.3662 5.40147C15.7216 5.45146 15.8605 5.88468 15.605 6.13462L12.2114 9.43938C12.1114 9.53935 12.0614 9.67821 12.0892 9.82262L12.889 14.4937C12.9501 14.8436 12.5779 15.1158 12.2669 14.9492L8.07349 12.7441C7.94574 12.6775 7.79578 12.6775 7.67358 12.7441L3.48016 14.9492C3.16357 15.1158 2.79699 14.8492 2.85808 14.4937L3.65789 9.82262C3.68011 9.68376 3.63567 9.53935 3.5357 9.43938L0.130969 6.14018C-0.124525 5.89024 0.0143304 5.45701 0.3698 5.40702L5.05755 4.72385C5.19641 4.70164 5.3186 4.61277 5.3797 4.49058L7.47919 0.241608C7.6347 -0.080536 8.0957 -0.080536 8.25122 0.241608L8.25677 0.236054Z" fill="#1E0E0E"/>
</svg>
