<svg width="16" height="15" viewBox="0 0 16 15" fill="none" xmlns="http://www.w3.org/2000/svg">
<path d="M6.05209 4.82282L7.86935 1.14503L9.68227 4.81402C9.85072 5.16163 10.1847 5.41026 10.5772 5.46148L14.6167 6.05017L11.6881 8.90206L11.6881 8.90201L11.681 8.90905C11.4241 9.16598 11.2758 9.54699 11.3509 9.95492L12.0406 13.9828L8.42254 12.0803L8.42041 12.0792C8.08233 11.9028 7.67025 11.8944 7.32075 12.0823L3.70648 13.9828L4.39713 9.9492L4.39718 9.9492L4.39847 9.94111C4.45735 9.57315 4.34197 9.18499 4.06603 8.90905L4.06609 8.90898L4.05762 8.90077L1.12127 6.05543L5.16571 5.46601L5.16572 5.46609L5.17604 5.46444C5.54729 5.40504 5.87855 5.16993 6.05052 4.82599L6.05052 4.82599L6.05209 4.82282Z" stroke="#1E0E0E" stroke-width="1.5" stroke-linecap="round" stroke-linejoin="round"/>
</svg>
